# xmcd
#
# Track frame offsets:
# 150
# 13092
# 25721
# 40102
# 57433
# 72928
# 87441
# 98624
# 112402
# 124940
# 143155
# 159131
#
# Disc length: 2347 seconds
#
#
# Revision: 4
# Processed by: cddbd v1.5.1PL0 Copyright (c) Steve Scherf et al.
# Submitted via: FreeRIP 2.90 
#
DISCID=9d09290c
DTITLE=Zillertaler Schürzenjäger - Zillertaler Schürzenjäger 92
DYEAR=1900
DGENRE=
TTITLE0=Ich habe mein Wort einer anderen gegeben
TTITLE1=Jodelautomat
TTITLE2=Schürzenjägerzeit
TTITLE3=Zum Beten geh i in die Berge
TTITLE4=Was dann?
TTITLE5=Dahoam is dahoam
TTITLE6=Zillertaler Hochzeitsmarsch
TTITLE7=Sierra Madre
TTITLE8=Sommer in den Bergen
TTITLE9=Mein Tirol, ich vermisse dich
TTITLE10=Rock 'n Roll im Zillertal
TTITLE11=Alles braucht im Leben seine Zeit
EXTD=
EXTT0=
EXTT1=
EXTT2=
EXTT3=
EXTT4=
EXTT5=
EXTT6=
EXTT7=
EXTT8=
EXTT9=
EXTT10=
EXTT11=
PLAYORDER=
